<svg width="18" height="6" viewBox="0 0 18 6" fill="none" xmlns="http://www.w3.org/2000/svg">
<path d="M7.5 6C7.21667 6 6.97933 5.904 6.788 5.712C6.59667 5.52 6.50067 5.28267 6.5 5V4H8V4.5H10V3.5H7.5C7.21667 3.5 6.97933 3.404 6.788 3.212C6.59667 3.02 6.50067 2.78267 6.5 2.5V1C6.5 0.716667 6.596 0.479333 6.788 0.288C6.98 0.0966668 7.21733 0.000666667 7.5 0H10.5C10.7833 0 11.021 0.0960001 11.213 0.288C11.405 0.48 11.5007 0.717333 11.5 1V2H10V1.5H8V2.5H10.5C10.7833 2.5 11.021 2.596 11.213 2.788C11.405 2.98 11.5007 3.21733 11.5 3.5V5C11.5 5.28333 11.404 5.521 11.212 5.713C11.02 5.905 10.7827 6.00067 10.5 6H7.5ZM14 6C13.7167 6 13.4793 5.904 13.288 5.712C13.0967 5.52 13.0007 5.28267 13 5V4H14.5V4.5H16.5V3.5H14C13.7167 3.5 13.4793 3.404 13.288 3.212C13.0967 3.02 13.0007 2.78267 13 2.5V1C13 0.716667 13.096 0.479333 13.288 0.288C13.48 0.0966668 13.7173 0.000666667 14 0H17C17.2833 0 17.521 0.0960001 17.713 0.288C17.905 0.48 18.0007 0.717333 18 1V2H16.5V1.5H14.5V2.5H17C17.2833 2.5 17.521 2.596 17.713 2.788C17.905 2.98 18.0007 3.21733 18 3.5V5C18 5.28333 17.904 5.521 17.712 5.713C17.52 5.905 17.2827 6.00067 17 6H14ZM1 6C0.716667 6 0.479333 5.904 0.288 5.712C0.0966668 5.52 0.000666667 5.28267 0 5V1C0 0.716667 0.0960001 0.479333 0.288 0.288C0.48 0.0966668 0.717333 0.000666667 1 0H4C4.28333 0 4.521 0.0960001 4.713 0.288C4.905 0.48 5.00067 0.717333 5 1V2H3.5V1.5H1.5V4.5H3.5V4H5V5C5 5.28333 4.904 5.521 4.712 5.713C4.52 5.905 4.28267 6.00067 4 6H1Z" fill="white"/>
</svg>
