<svg width="18" height="18" viewBox="0 0 18 18" fill="none" xmlns="http://www.w3.org/2000/svg">
<g clip-path="url(#clip0_5_31)">
<path d="M13.7812 0H4.21875C1.8888 0 0 1.8888 0 4.21875V13.7812C0 16.1112 1.8888 18 4.21875 18H13.7812C16.1112 18 18 16.1112 18 13.7812V4.21875C18 1.8888 16.1112 0 13.7812 0Z" fill="#0277BD"/>
<path d="M3.77951 7.21765L3.98074 9.46357H9.00675V7.21765H3.77951ZM9.00668 2.67188H3.375L3.57919 4.9178H9.00668V2.67188ZM9.00668 15.3873V13.0506L8.99684 13.0532L6.49554 12.3778L6.33565 10.5865H4.08108L4.39573 14.113L8.99634 15.3901L9.00668 15.3873Z" fill="#EBEBEB"/>
<path d="M11.7645 9.46357L11.5038 12.3763L8.99895 13.0525V15.389L13.6032 14.113L13.637 13.7335L14.1647 7.82079L14.2195 7.21765L14.625 2.67188H8.99895V4.9178H12.1636L11.9593 7.21765H8.99895V9.46357H11.7645Z" fill="white"/>
</g>
<defs>
<clipPath id="clip0_5_31">
<rect width="18" height="18" fill="white"/>
</clipPath>
</defs>
</svg>
