<svg width="17" height="17" viewBox="0 0 17 17" fill="none" xmlns="http://www.w3.org/2000/svg">
<path d="M8.26094 3.47969L9.58907 2.15156C9.9344 1.80623 10.3444 1.53229 10.7956 1.3454C11.2468 1.1585 11.7304 1.06231 12.2188 1.06231C12.7071 1.06231 13.1907 1.1585 13.6419 1.3454C14.0931 1.53229 14.5031 1.80623 14.8484 2.15156C15.1938 2.4969 15.4677 2.90687 15.6546 3.35807C15.8415 3.80927 15.9377 4.29287 15.9377 4.78125C15.9377 5.26963 15.8415 5.75322 15.6546 6.20443C15.4677 6.65563 15.1938 7.0656 14.8484 7.41094L12.1922 10.0672C11.8469 10.4125 11.4369 10.6865 10.9857 10.8734C10.5345 11.0603 10.0509 11.1565 9.56251 11.1565C9.07412 11.1565 8.59052 11.0603 8.13931 10.8734C7.68811 10.6865 7.27814 10.4125 6.93282 10.0672C6.79189 9.91616 6.71511 9.7163 6.71868 9.50976C6.72225 9.30322 6.80588 9.10613 6.95194 8.96006C7.09802 8.814 7.2951 8.73036 7.50164 8.7268C7.70818 8.72323 7.90804 8.8 8.05907 8.94094C8.25642 9.13851 8.49079 9.29525 8.74876 9.40219C9.00673 9.50913 9.28325 9.56417 9.56251 9.56417C9.84176 9.56417 10.1183 9.50913 10.3763 9.40219C10.6342 9.29525 10.8686 9.13851 11.0659 8.94094L13.7222 6.28469C14.1015 5.88205 14.3091 5.34748 14.3009 4.79436C14.2926 4.24124 14.0692 3.71309 13.6781 3.32193C13.2869 2.93078 12.7588 2.70739 12.2056 2.69915C11.6525 2.69091 11.118 2.89848 10.7153 3.27781L9.38719 4.60594C9.23616 4.74687 9.03631 4.82365 8.82977 4.82008C8.62323 4.81651 8.42614 4.73288 8.28007 4.58681C8.134 4.44074 8.05037 4.24365 8.0468 4.03711C8.04324 3.83057 8.12001 3.63072 8.26094 3.47969ZM3.27782 13.7222C3.47517 13.9198 3.70954 14.0765 3.96751 14.1834C4.22548 14.2904 4.502 14.3454 4.78126 14.3454C5.06051 14.3454 5.33703 14.2904 5.595 14.1834C5.85298 14.0765 6.08734 13.9198 6.28469 13.7222L7.61282 12.3941C7.76385 12.2531 7.9637 12.1764 8.17025 12.1799C8.37679 12.1835 8.57387 12.2671 8.71994 12.4132C8.86601 12.5593 8.94964 12.7563 8.95321 12.9629C8.95678 13.1694 8.88 13.3693 8.73907 13.5203L7.41094 14.8484C7.06561 15.1938 6.65564 15.4677 6.20443 15.6546C5.75323 15.8415 5.26963 15.9377 4.78126 15.9377C4.29288 15.9377 3.80928 15.8415 3.35808 15.6546C2.90688 15.4677 2.4969 15.1938 2.15157 14.8484C1.80623 14.5031 1.5323 14.0931 1.3454 13.6419C1.15851 13.1907 1.06232 12.7071 1.06232 12.2187C1.06232 11.7304 1.15851 11.2468 1.3454 10.7956C1.5323 10.3444 1.80623 9.9344 2.15157 9.58906L4.80782 6.93281C5.15314 6.58745 5.56311 6.3135 6.01431 6.12659C6.46552 5.93968 6.94912 5.84348 7.43751 5.84348C7.92589 5.84348 8.40949 5.93968 8.8607 6.12659C9.3119 6.3135 9.72187 6.58745 10.0672 6.93281C10.2081 7.08384 10.2849 7.2837 10.2813 7.49024C10.2778 7.69678 10.1941 7.89386 10.0481 8.03994C9.902 8.186 9.70491 8.26964 9.49837 8.2732C9.29183 8.27677 9.09197 8.19999 8.94094 8.05906C8.74359 7.86149 8.50923 7.70475 8.25125 7.59781C7.99328 7.49087 7.71676 7.43583 7.43751 7.43583C7.15825 7.43583 6.88173 7.49087 6.62376 7.59781C6.36579 7.70475 6.13142 7.86149 5.93407 8.05906L3.27782 10.7153C3.08024 10.9127 2.92351 11.147 2.81657 11.405C2.70963 11.663 2.65459 11.9395 2.65459 12.2187C2.65459 12.498 2.70963 12.7745 2.81657 13.0325C2.92351 13.2905 3.08024 13.5248 3.27782 13.7222Z" fill="white"/>
</svg>
