<svg width="18" height="18" viewBox="0 0 18 18" fill="none" xmlns="http://www.w3.org/2000/svg">
<g clip-path="url(#clip0_4_109)">
<path d="M18 9.22498C18 11.2356 17.4276 13.0437 16.2828 14.6493C15.138 16.2549 13.6596 17.3658 11.8476 17.982C11.6364 18.0228 11.4822 17.9949 11.385 17.8983C11.3371 17.8516 11.2993 17.7955 11.2741 17.7336C11.2488 17.6716 11.2367 17.6052 11.2383 17.5383V15.003C11.2383 14.226 11.0352 13.6575 10.629 13.2975C11.0344 13.2558 11.436 13.1836 11.8305 13.0815C12.1851 12.9855 12.552 12.8295 12.9312 12.6135C13.295 12.4089 13.6171 12.1378 13.8807 11.8143C14.1345 11.4975 14.3415 11.0769 14.5017 10.5525C14.6619 10.0281 14.742 9.42568 14.742 8.74528C14.742 7.77568 14.4336 6.95068 13.8168 6.27028C14.1048 5.54188 14.0733 4.72498 13.7223 3.81958C13.5039 3.74758 13.1877 3.79168 12.7737 3.95188C12.3983 4.09325 12.0373 4.27015 11.6955 4.48018L11.25 4.76818C10.5183 4.55921 9.7609 4.45438 9 4.45678C8.23905 4.45467 7.48161 4.55981 6.75 4.76908C6.5871 4.65654 6.42114 4.5485 6.2523 4.44508C6.0453 4.31668 5.7189 4.16248 5.2731 3.98248C4.8285 3.80248 4.4925 3.74848 4.2651 3.82048C3.9219 4.72468 3.8949 5.54128 4.1841 6.27028C3.5661 6.95068 3.2571 7.77568 3.2571 8.74528C3.2571 9.42568 3.3375 10.0263 3.4983 10.5471C3.6585 11.0673 3.8634 11.4876 4.113 11.808C4.371 12.136 4.6916 12.4095 5.0562 12.6126C5.4354 12.8286 5.8026 12.9846 6.1578 13.0806C6.5136 13.1778 6.9141 13.2501 7.3593 13.2975C7.0473 13.5855 6.8559 13.998 6.7851 14.535C6.61744 14.6166 6.44028 14.6771 6.2577 14.715C6.03778 14.7581 5.81399 14.7783 5.5899 14.7753C5.3319 14.7753 5.076 14.6892 4.8222 14.517C4.5684 14.3442 4.3515 14.094 4.1715 13.7664C4.03171 13.518 3.83757 13.3045 3.6036 13.1418C3.3732 12.9816 3.1797 12.8856 3.0231 12.8538L2.7891 12.8178C2.6253 12.8178 2.5119 12.8358 2.4489 12.8718C2.3859 12.9078 2.3664 12.9537 2.3904 13.0095C2.41638 13.0708 2.45193 13.1276 2.4957 13.1778C2.5409 13.2316 2.59225 13.2799 2.6487 13.3218L2.7297 13.3812C2.9019 13.4622 3.072 13.6146 3.24 13.8384C3.408 14.0628 3.531 14.2668 3.609 14.4504L3.726 14.7267C3.828 15.0309 4.0002 15.2772 4.2426 15.4656C4.485 15.6546 4.7466 15.7746 5.0274 15.8256C5.3082 15.8778 5.5797 15.906 5.8419 15.9102C6.1035 15.9138 6.3204 15.8997 6.4926 15.8679L6.7617 15.8202C6.7617 16.1244 6.7638 16.4808 6.768 16.8894L6.7734 17.5374C6.7734 17.6814 6.7224 17.8014 6.6204 17.8974C6.5196 17.9946 6.3636 18.0228 6.1524 17.982C4.3398 17.3652 2.8614 16.2543 1.7172 14.6493C0.5724 13.0431 0 11.235 0 9.22498C0 7.55098 0.4023 6.00748 1.2069 4.59448C1.98641 3.20815 3.11602 2.05061 4.4829 1.23748C5.84595 0.41696 7.40908 -0.0112754 9 -2.15731e-05C10.5912 -0.0114414 12.1547 0.4168 13.518 1.23748C14.8845 2.05074 16.0138 3.20826 16.7931 4.59448C17.5977 6.00808 18 7.55158 18 9.22498Z" fill="white"/>
</g>
<defs>
<clipPath id="clip0_4_109">
<rect width="18" height="18" fill="white"/>
</clipPath>
</defs>
</svg>
