<svg width="17" height="17" viewBox="0 0 17 17" fill="none" xmlns="http://www.w3.org/2000/svg">
<g clip-path="url(#clip0_5_26)">
<path d="M13.0156 0H3.98438C1.78387 0 0 1.78387 0 3.98438V13.0156C0 15.2161 1.78387 17 3.98438 17H13.0156C15.2161 17 17 15.2161 17 13.0156V3.98438C17 1.78387 15.2161 0 13.0156 0Z" fill="#E14E1D"/>
<path d="M3.1875 2.52344L3.75926 8.93782H11.1111L10.8644 11.689L8.49728 12.3291L6.13461 11.69L5.97663 9.92342H3.84758L4.15205 13.3288L8.49681 14.5355L12.8471 13.3288L13.4303 6.81693H5.69925L5.50514 4.64479H13.6225L13.8125 2.52344H3.1875Z" fill="white"/>
<path d="M8.5 2.52344H3.1875L3.75926 8.93782H8.5V6.81693H5.69925L5.50514 4.64479H8.5V2.52344ZM8.5 12.3281L8.49728 12.3291L6.13461 11.69L5.97663 9.92342H3.84758L4.15205 13.3288L8.49681 14.5355L8.50007 14.5346L8.5 12.3281Z" fill="#EBEBEB"/>
</g>
<defs>
<clipPath id="clip0_5_26">
<rect width="17" height="17" fill="white"/>
</clipPath>
</defs>
</svg>
