<svg width="24" height="24" viewBox="0 0 24 24" fill="none" xmlns="http://www.w3.org/2000/svg">
<path d="M1 10.7778C1 6.16878 1 3.86367 2.43244 2.43244C3.86367 1 6.16878 1 10.7778 1H13.2222C17.8312 1 20.1363 1 21.5676 2.43244C23 3.86367 23 6.16878 23 10.7778V13.2222C23 17.8312 23 20.1363 21.5676 21.5676C20.1363 23 17.8312 23 13.2222 23H10.7778C6.16878 23 3.86367 23 2.43244 21.5676C1 20.1363 1 17.8312 1 13.2222V10.7778Z" stroke="#777" stroke-width="2"/>
<path d="M17.5 8.33332C18.5125 8.33332 19.3333 7.51251 19.3333 6.49999C19.3333 5.48747 18.5125 4.66666 17.5 4.66666C16.4875 4.66666 15.6667 5.48747 15.6667 6.49999C15.6667 7.51251 16.4875 8.33332 17.5 8.33332Z" fill="#777"/>
<path d="M12 15.6667C14.025 15.6667 15.6667 14.0251 15.6667 12C15.6667 9.97497 14.025 8.33334 12 8.33334C9.97495 8.33334 8.33333 9.97497 8.33333 12C8.33333 14.0251 9.97495 15.6667 12 15.6667Z" stroke="#777" stroke-width="2"/>
</svg>
