<svg width="17" height="17" viewBox="0 0 17 17" fill="none" xmlns="http://www.w3.org/2000/svg">
<g clip-path="url(#clip0_4_105)">
<path d="M13.0156 0H3.98438C1.78387 0 0 1.78387 0 3.98438V13.0156C0 15.2161 1.78387 17 3.98438 17H13.0156C15.2161 17 17 15.2161 17 13.0156V3.98438C17 1.78387 15.2161 0 13.0156 0Z" fill="#F0DB4F"/>
<path d="M4.46993 14.2064L5.77083 13.4191C6.02184 13.8641 6.25015 14.2406 6.7978 14.2406C7.32274 14.2406 7.65371 14.0353 7.65371 13.2366V7.80466H9.25131V13.2591C9.25131 14.9138 8.28138 15.667 6.86627 15.667C5.58828 15.667 4.84645 15.0051 4.46986 14.2063M10.119 14.0352L11.4198 13.2821C11.7623 13.8413 12.2073 14.2521 12.9946 14.2521C13.6566 14.2521 14.0787 13.9211 14.0787 13.4647C14.0787 12.9169 13.6451 12.7229 12.9147 12.4035L12.5154 12.2322C11.3628 11.7416 10.5982 11.1254 10.5982 9.82448C10.5982 8.62624 11.5112 7.71329 12.9377 7.71329C13.9533 7.71329 14.6836 8.0671 15.2085 8.99141L13.9646 9.79021C13.6907 9.29953 13.3941 9.10556 12.9377 9.10556C12.4698 9.10556 12.1731 9.40226 12.1731 9.79021C12.1731 10.2695 12.4698 10.4635 13.1544 10.7603L13.5538 10.9314C14.9117 11.5135 15.6763 12.1067 15.6763 13.4418C15.6763 14.8798 14.5466 15.6671 13.0289 15.6671C11.5455 15.6671 10.5869 14.9596 10.119 14.0352Z" fill="#323330"/>
</g>
<defs>
<clipPath id="clip0_4_105">
<rect width="17" height="17" fill="white"/>
</clipPath>
</defs>
</svg>
