<svg width="32" height="32" viewBox="0 0 32 32" fill="none" xmlns="http://www.w3.org/2000/svg">
<path d="M2 2V30H30V2H2ZM17.238 23.837C17.238 26.562 15.638 27.806 13.307 27.806C11.201 27.806 9.982 26.719 9.357 25.4L11.501 24.106C11.914 24.837 12.289 25.456 13.195 25.456C14.057 25.456 14.607 25.118 14.607 23.8V14.856H17.238V23.837ZM23.462 27.806C21.018 27.806 19.437 26.644 18.668 25.118L20.812 23.881C21.375 24.8 22.112 25.481 23.406 25.481C24.493 25.481 25.194 24.937 25.194 24.181C25.194 23.281 24.481 22.962 23.275 22.431L22.619 22.15C20.719 21.344 19.463 20.325 19.463 18.181C19.463 16.206 20.969 14.706 23.313 14.706C24.988 14.706 26.188 15.287 27.051 16.812L25.001 18.125C24.551 17.319 24.063 17 23.307 17C22.539 17 22.051 17.488 22.051 18.125C22.051 18.913 22.539 19.231 23.67 19.725L24.326 20.006C26.564 20.962 27.82 21.944 27.82 24.143C27.82 26.506 25.957 27.805 23.463 27.805L23.462 27.806Z" fill="white"/>
</svg>
