<svg width="24" height="24" viewBox="0 0 24 24" fill="none" xmlns="http://www.w3.org/2000/svg">
<g clip-path="url(#clip0_4_139)">
<path d="M24.129 23.412L23.621 22.928C23.3788 22.6072 23.108 22.309 22.812 22.037L22.807 22.033C22.5083 21.7616 22.198 21.5036 21.876 21.259C21.618 21.0816 21.2633 20.868 20.812 20.618C20.4458 20.4554 20.1539 20.1614 19.994 19.794L19.99 19.784L19.942 19.76C20.154 19.739 20.348 19.7 20.534 19.645L20.511 19.651L21.081 19.494C21.317 19.42 21.59 19.372 21.873 19.361H21.879C22.177 19.349 22.458 19.301 22.726 19.222L22.701 19.228C22.8303 19.196 22.9633 19.1596 23.1 19.119C23.2367 19.0783 23.3537 19.042 23.451 19.01V18.841C23.3543 18.6963 23.2373 18.531 23.1 18.345C22.9726 18.1709 22.8238 18.0137 22.657 17.877L22.652 17.873C22.2327 17.5023 21.7983 17.1436 21.349 16.797C20.9278 16.4697 20.4902 16.164 20.038 15.881L19.97 15.841C19.7092 15.6705 19.433 15.5249 19.145 15.406L19.111 15.394C18.8123 15.2726 18.518 15.1396 18.228 14.995C18.1235 14.9438 18.0139 14.9039 17.901 14.876L17.89 14.874C17.7772 14.8515 17.6751 14.7921 17.6 14.705L17.599 14.704C17.4571 14.5156 17.338 14.3112 17.244 14.095L17.236 14.075C17.1393 13.849 17.0347 13.632 16.922 13.424C16.68 12.956 16.446 12.4803 16.22 11.997C15.994 11.5136 15.777 11.0296 15.569 10.545C15.4243 10.2223 15.2913 9.89998 15.17 9.57798C15.0473 9.24975 14.8929 8.93426 14.709 8.63598L14.722 8.65898C14.3235 7.97577 13.8788 7.32057 13.391 6.69798L13.419 6.73598C12.9726 6.17064 12.485 5.63919 11.96 5.14598L11.952 5.13898C11.4357 4.6546 10.8907 4.20178 10.32 3.78298L10.271 3.74798C9.67367 3.31398 9.02034 2.88665 8.311 2.46598C8.00948 2.29012 7.6846 2.1578 7.346 2.07298L7.32 2.06698L6.207 1.78898L5.578 1.74098C5.36867 1.72498 5.159 1.71698 4.949 1.71698C4.80739 1.64286 4.67707 1.54892 4.562 1.43798C4.45078 1.33218 4.33287 1.23364 4.209 1.14298L4.199 1.13598C3.54942 0.761141 2.86527 0.449704 2.156 0.205979L2.071 0.179979C1.89461 0.0790609 1.69777 0.0191121 1.49507 0.00457163C1.29237 -0.00996887 1.08899 0.0212713 0.900001 0.0959792L0.909001 0.0929792C0.722897 0.165961 0.55517 0.279072 0.41776 0.42426C0.28035 0.569448 0.176636 0.743143 0.114001 0.932979L0.111001 0.942979C0.0048843 1.19781 -0.0295923 1.47679 0.0112955 1.74979C0.0521834 2.02278 0.166882 2.27942 0.343001 2.49198L0.341001 2.48898C0.703668 2.97231 0.981668 3.35231 1.175 3.62898C1.31967 3.82298 1.469 4.02465 1.623 4.23398C1.764 4.42198 1.889 4.63698 1.99 4.86398L1.998 4.88498C2.054 5.00398 2.103 5.14598 2.139 5.29198L2.142 5.30798C2.174 5.44531 2.21433 5.59465 2.263 5.75598C2.40767 6.12665 2.54467 6.50665 2.674 6.89598C2.815 7.32098 2.971 7.68098 3.152 8.02398L3.133 7.98398C3.22967 8.16131 3.32667 8.33465 3.424 8.50398C3.52133 8.67331 3.626 8.83865 3.738 8.99998C3.80152 9.09581 3.88343 9.17807 3.979 9.24198L3.982 9.24398C4.03208 9.2799 4.07332 9.32675 4.1026 9.38099C4.13189 9.43522 4.14844 9.4954 4.151 9.55698C4.03302 9.73224 3.95862 9.93415 3.934 10.144L3.933 10.15C3.90163 10.3855 3.85045 10.618 3.78 10.845L3.788 10.815C3.55277 11.5352 3.43427 12.2884 3.437 13.046C3.437 13.304 3.45 13.558 3.477 13.809L3.474 13.778C3.534 14.736 3.823 15.616 4.286 16.378L4.272 16.353C4.469 16.648 4.68 16.905 4.913 17.14C5.04836 17.2922 5.23071 17.3949 5.43109 17.4317C5.63147 17.4685 5.83839 17.4372 6.019 17.343L6.014 17.345C6.18729 17.2839 6.33849 17.1726 6.44836 17.0254C6.55823 16.8781 6.62181 16.7015 6.631 16.518V16.516C6.679 16.042 6.751 15.618 6.85 15.204L6.837 15.271C6.86234 15.2035 6.87522 15.132 6.875 15.06L6.873 15.015V15.017C6.865 14.9443 6.90933 14.8756 7.006 14.811V14.859C7.10267 15.085 7.20333 15.3106 7.308 15.536C7.41267 15.7613 7.52133 15.987 7.634 16.213C7.929 16.662 8.242 17.054 8.586 17.415L8.583 17.412C8.92521 17.7815 9.30266 18.1168 9.71 18.413L9.732 18.428C9.944 18.59 10.13 18.765 10.298 18.956L10.302 18.96C10.46 19.146 10.649 19.299 10.862 19.414L10.872 19.419V19.395H10.92C10.8821 19.3101 10.8193 19.2386 10.74 19.19L10.738 19.189C10.6646 19.1485 10.5941 19.1031 10.527 19.053L10.532 19.056C10.3873 18.9113 10.238 18.75 10.084 18.572C9.93 18.394 9.789 18.2246 9.661 18.064C9.32234 17.596 8.99934 17.107 8.692 16.597C8.38467 16.087 8.09433 15.5686 7.821 15.042C7.69167 14.784 7.56667 14.518 7.446 14.244C7.32534 13.97 7.20833 13.704 7.095 13.446C7.04369 13.3411 7.0112 13.2281 6.999 13.112V13.107C6.9963 13.0521 6.97941 12.9988 6.94996 12.9523C6.92052 12.9059 6.87953 12.8679 6.831 12.842L6.829 12.841C6.71451 13.0378 6.5776 13.2207 6.421 13.386L6.422 13.385C6.26139 13.5542 6.13206 13.7506 6.04 13.965L6.035 13.978C5.88532 14.3473 5.78804 14.7357 5.746 15.132L5.744 15.151C5.696 15.5783 5.64767 16.0176 5.599 16.469L5.551 16.493L5.527 16.517C5.40182 16.4919 5.28385 16.4391 5.18176 16.3624C5.07966 16.2857 4.99603 16.1872 4.937 16.074L4.935 16.069C4.81367 15.835 4.705 15.605 4.609 15.379C4.34704 14.6936 4.20399 13.9685 4.186 13.235V13.226C4.13406 12.4422 4.23111 11.6556 4.472 10.908L4.46 10.952C4.508 10.7746 4.61267 10.476 4.774 10.056C4.93534 9.63598 4.96767 9.34565 4.871 9.18498C4.8233 9.02596 4.7314 8.88377 4.606 8.77498L4.605 8.77398C4.48548 8.67046 4.37352 8.5585 4.27 8.43898L4.267 8.43498C4.15434 8.27231 4.04567 8.09898 3.941 7.91498C3.83633 7.73098 3.74367 7.54965 3.663 7.37098C3.47679 6.93036 3.31848 6.47847 3.189 6.01798L3.167 5.92898C3.02472 5.41443 2.84215 4.91188 2.621 4.42598L2.647 4.48998C2.54354 4.25253 2.41265 4.028 2.257 3.82098L2.263 3.82898C2.10033 3.61165 1.955 3.40598 1.827 3.21198C1.66433 3.00265 1.503 2.80098 1.343 2.60698C1.17627 2.40504 1.03333 2.18459 0.917001 1.94998L0.908001 1.92998C0.856836 1.82551 0.816945 1.7159 0.789001 1.60298L0.787001 1.59198C0.769822 1.53517 0.765305 1.47528 0.773771 1.41654C0.782237 1.3578 0.803479 1.30163 0.836002 1.25198L0.835001 1.25398C0.845693 1.19991 0.870932 1.14977 0.908001 1.10898C0.948488 1.07279 0.997821 1.04795 1.051 1.03698H1.053C1.1319 0.985809 1.2226 0.955724 1.31644 0.949596C1.41028 0.943469 1.50412 0.961504 1.589 1.00198L1.586 1.00098C1.805 1.06298 1.982 1.12498 2.155 1.19598L2.119 1.18298C2.425 1.31231 2.70733 1.43731 2.966 1.55798C3.264 1.69998 3.518 1.84998 3.758 2.01698L3.74 2.00498C3.86933 2.08565 3.99833 2.17431 4.127 2.27098C4.25567 2.36765 4.39267 2.46465 4.538 2.56198H4.877C5.135 2.56198 5.409 2.57431 5.699 2.59898C5.992 2.62198 6.263 2.67698 6.521 2.76298L6.497 2.75598C6.978 2.89898 7.391 3.06798 7.783 3.27098L7.742 3.25198C8.13733 3.45331 8.51233 3.66698 8.867 3.89298C9.456 4.25998 9.965 4.63598 10.444 5.04698L10.427 5.03298C10.927 5.46098 11.381 5.89998 11.807 6.36398L11.817 6.37598C12.233 6.82998 12.63 7.32298 12.993 7.83998L13.024 7.88698C13.358 8.35898 13.695 8.90498 13.998 9.47098L14.04 9.55598C14.1293 9.7295 14.2075 9.90853 14.274 10.092L14.285 10.125C14.3497 10.3103 14.422 10.5003 14.502 10.695C14.6793 11.0983 14.8693 11.5053 15.072 11.916C15.2747 12.3266 15.4647 12.726 15.642 13.114L16.174 14.275C16.361 14.681 16.57 15.031 16.813 15.354L16.802 15.339C17.005 15.556 17.276 15.708 17.58 15.761L17.588 15.762C17.956 15.854 18.266 15.958 18.566 16.081L18.519 16.064C18.662 16.129 18.846 16.198 19.035 16.259L19.075 16.27C19.287 16.335 19.471 16.421 19.64 16.529L19.631 16.524C19.958 16.707 20.235 16.887 20.499 17.083L20.478 17.068C20.752 17.2693 21.026 17.4593 21.3 17.638C21.4293 17.7346 21.6463 17.8756 21.951 18.061C22.2557 18.2463 22.417 18.4196 22.435 18.581C21.8223 18.5597 21.2089 18.5888 20.601 18.668L20.657 18.662C20.1493 18.7279 19.6522 18.859 19.178 19.052L19.218 19.038C19.0923 19.0913 18.9626 19.1344 18.83 19.167L18.811 19.171C18.7421 19.1809 18.6785 19.2135 18.6303 19.2637C18.5821 19.3139 18.5521 19.3788 18.545 19.448C18.606 19.524 18.655 19.613 18.688 19.709L18.69 19.715C18.724 19.817 18.765 19.905 18.815 19.987L18.812 19.981C18.931 20.192 19.059 20.374 19.203 20.542L19.199 20.537C19.34 20.711 19.499 20.862 19.675 20.991L19.682 20.996C19.8447 21.1253 20.014 21.2583 20.19 21.395C20.351 21.521 20.533 21.645 20.722 21.757L20.746 21.77C21.03 21.944 21.36 22.11 21.704 22.249L21.75 22.265C22.124 22.415 22.445 22.589 22.743 22.796L22.727 22.785C22.921 22.8976 23.1143 23.0226 23.307 23.16C23.4997 23.2973 23.685 23.4303 23.863 23.559C23.936 23.631 24 23.711 24.054 23.798L24.057 23.803C24.1492 23.9094 24.2774 23.9781 24.417 23.996H24.42V23.948C24.3316 23.8811 24.2671 23.7874 24.236 23.681L24.235 23.677C24.2121 23.5807 24.1743 23.4886 24.123 23.404L24.125 23.408L24.129 23.412ZM5.553 4.20698C5.42367 4.20698 5.30267 4.21098 5.19 4.21898C5.08008 4.22605 4.97152 4.24722 4.867 4.28198L4.876 4.27898V4.30298H4.924C4.98867 4.39965 5.07 4.50831 5.168 4.62898C5.266 4.74965 5.35467 4.86665 5.434 4.97998L5.821 5.77798L5.869 5.75398C5.98162 5.67291 6.06899 5.56162 6.121 5.43298L6.123 5.42798C6.175 5.28898 6.205 5.12698 6.205 4.95898L6.204 4.90498V4.90798C6.15866 4.86388 6.12202 4.81164 6.096 4.75398L6.095 4.75098L6.014 4.56898C5.96213 4.48614 5.88796 4.4196 5.8 4.37698L5.797 4.37598C5.70715 4.33307 5.62476 4.27601 5.553 4.20698Z" fill="white"/>
</g>
<defs>
<clipPath id="clip0_4_139">
<rect width="24" height="24" fill="white"/>
</clipPath>
</defs>
</svg>
