<svg width="158" height="152" viewBox="0 0 158 152" fill="none" xmlns="http://www.w3.org/2000/svg">
<path d="M39.9818 113.302V113.802H40.4818H116.956H117.456V113.302V106.688C117.456 106.009 117.035 105.33 116.44 104.698C115.828 104.049 114.952 103.365 113.869 102.671C111.699 101.282 108.629 99.8091 104.992 98.4634C97.7167 95.7719 88.0983 93.5623 78.7187 93.5623C69.3392 93.5623 59.7208 95.7719 52.4454 98.4634C48.808 99.8091 45.7386 101.282 43.5687 102.671C42.4854 103.365 41.609 104.049 40.9972 104.698C40.4021 105.33 39.9818 106.009 39.9818 106.688V113.302ZM78.7187 29.0264C85.2426 29.0264 91.4952 31.5124 96.1022 35.9313C100.708 40.3495 103.292 46.3374 103.292 52.5763C103.292 58.8152 100.708 64.803 96.1022 69.2213C91.4952 73.6401 85.2426 76.1261 78.7187 76.1261C72.1949 76.1261 65.9422 73.6401 61.3353 69.2213C56.729 64.803 54.1454 58.8152 54.1454 52.5763C54.1454 46.3374 56.729 40.3495 61.3353 35.9313C65.9422 31.5124 72.1949 29.0264 78.7187 29.0264ZM78.7187 40.0514C75.2677 40.0514 71.9541 41.3661 69.5078 43.7125C67.0608 46.0597 65.682 49.2476 65.682 52.5763C65.682 55.905 67.0608 59.0929 69.5078 61.44C71.9541 63.7865 75.2677 65.1012 78.7187 65.1012C82.1697 65.1012 85.4833 63.7865 87.9296 61.44C90.3766 59.0929 91.7554 55.905 91.7554 52.5763C91.7554 49.2476 90.3766 46.0597 87.9296 43.7125C85.4833 41.3661 82.1697 40.0514 78.7187 40.0514ZM78.7187 83.1386C87.0276 83.1386 99.5034 85.1272 109.889 89.1104C115.082 91.102 119.72 93.5803 123.052 96.5324C126.381 99.4821 128.365 102.866 128.365 106.688V124.226H29.072V106.688C29.072 102.866 31.0565 99.4821 34.3854 96.5324C37.717 93.5803 42.3553 91.102 47.5482 89.1104C57.934 85.1272 70.4098 83.1386 78.7187 83.1386Z" fill="white" stroke="white"/>
<path d="M153 76.2248C153 115.119 120.068 147 79 147C37.9325 147 5 115.119 5 76.2248C5 37.3311 37.9325 5.44965 79 5.44965C120.068 5.44965 153 37.3311 153 76.2248Z" stroke="white" stroke-width="10"/>
</svg>
