<svg width="24" height="15" viewBox="0 0 24 15" fill="none" xmlns="http://www.w3.org/2000/svg">
<path d="M11.9 0C8.72667 0 6.74333 1.58667 5.95 4.76C7.14 3.17333 8.52833 2.57833 10.115 2.975C11.02 3.201 11.667 3.858 12.383 4.585C13.551 5.77 14.9 7.14 17.85 7.14C21.0233 7.14 23.0067 5.55333 23.8 2.38C22.61 3.96667 21.2217 4.56167 19.635 4.165C18.729 3.939 18.083 3.282 17.365 2.555C16.2 1.37 14.85 0 11.9 0ZM5.95 7.14C2.77667 7.14 0.793333 8.72667 0 11.9C1.19 10.3133 2.57833 9.71833 4.165 10.115C5.07 10.341 5.717 10.998 6.434 11.725C7.6 12.91 8.95 14.28 11.9 14.28C15.0733 14.28 17.0567 12.6933 17.85 9.52C16.66 11.1067 15.2717 11.7017 13.685 11.305C12.779 11.079 12.133 10.422 11.415 9.695C10.25 8.51 8.9 7.14 5.95 7.14Z" fill="white"/>
</svg>
